<svg width="276" height="68" viewBox="0 0 276 68" fill="none" xmlns="http://www.w3.org/2000/svg">
<path d="M68.919 18.3985H57.8767V66.3113H68.919V18.3985Z" fill="#131313"/>
<path d="M120.323 37.9469C120.323 35.2791 119.776 32.6374 118.714 30.1727C117.652 27.708 116.095 25.4684 114.133 23.582C112.171 21.6956 109.841 20.1992 107.277 19.1783C104.713 18.1574 101.965 17.6319 99.19 17.6319C96.4149 17.6319 93.6669 18.1574 91.1029 19.1783C88.5388 20.1992 86.2092 21.6956 84.2471 23.582C82.2847 25.4684 80.7281 27.708 79.6661 30.1727C78.6042 32.6374 78.0574 35.2791 78.0574 37.9469V66.3113H88.7052V37.9469C88.7052 36.6233 88.9763 35.3127 89.5033 34.0898C90.0302 32.8669 90.8024 31.7558 91.7761 30.8199C92.7497 29.884 93.9057 29.1415 95.1775 28.635C96.4496 28.1285 97.8131 27.8678 99.19 27.8678C100.567 27.8678 101.93 28.1285 103.203 28.635C104.474 29.1415 105.63 29.884 106.604 30.8199C107.578 31.7558 108.35 32.8669 108.877 34.0898C109.404 35.3127 109.675 36.6233 109.675 37.9469V66.3113H120.323V37.9469Z" fill="#131313"/>
<path d="M176.295 42.3549C176.295 56.0089 165.3 67.0779 151.736 67.0779C138.172 67.0779 127.176 56.0089 127.176 42.3549C127.176 28.7007 138.172 17.6319 151.736 17.6319C165.3 17.6319 176.295 28.7007 176.295 42.3549ZM137.541 42.3549C137.541 50.2467 143.896 56.6444 151.736 56.6444C159.576 56.6444 165.931 50.2467 165.931 42.3549C165.931 34.4629 159.576 28.0652 151.736 28.0652C143.896 28.0652 137.541 34.4629 137.541 42.3549Z" fill="#131313"/>
<path d="M49.119 42.3549C49.119 48.8983 46.5424 55.1748 41.9534 59.809C37.3644 64.4431 31.1377 67.0568 24.6377 67.0779C18.1376 67.0986 11.8945 64.5247 7.27636 59.9197C2.65826 55.3151 0.0418483 49.0554 0.000497644 42.5121C-0.040853 35.969 2.49623 29.6761 7.05578 25.0127C11.6153 20.3492 17.8254 17.6955 24.3252 17.633C30.8249 17.5706 37.0842 20.1046 41.7314 24.6796C46.3783 29.2546 49.0345 35.4976 49.1171 42.0402L38.7534 42.1732C38.7058 38.3916 37.1707 34.783 34.4847 32.1387C31.7987 29.4944 28.1809 28.0298 24.4241 28.0659C20.6673 28.102 17.0779 29.6358 14.4425 32.3312C11.8071 35.0267 10.3407 38.6641 10.3646 42.4457C10.3885 46.2278 11.9008 49.8458 14.57 52.5074C17.2392 55.1687 20.8477 56.6567 24.6047 56.6444C28.3616 56.6325 31.9606 55.1216 34.613 52.443C37.2654 49.7645 38.7545 46.1369 38.7545 42.3549V0H49.1171L49.119 42.3549Z" fill="#131313"/>
<path d="M263.491 42.3549C263.491 56.0089 252.495 67.0779 238.932 67.0779C225.368 67.0779 214.372 56.0089 214.372 42.3549C214.372 28.7007 225.368 17.6319 238.932 17.6319C252.495 17.6319 263.491 28.7007 263.491 42.3549ZM224.737 42.3549C224.737 50.2467 231.092 56.6444 238.932 56.6444C246.771 56.6444 253.127 50.2467 253.127 42.3549C253.127 34.4629 246.771 28.0652 238.932 28.0652C231.092 28.0652 224.737 34.4629 224.737 42.3549Z" fill="#131313"/>
<path d="M63.5882 13.0323C67.1632 13.0323 70.0613 10.1149 70.0613 6.51614C70.0613 2.91737 67.1632 0 63.5882 0C60.0133 0 57.1152 2.91737 57.1152 6.51614C57.1152 10.1149 60.0133 13.0323 63.5882 13.0323Z" fill="#131313"/>
<path d="M209.803 28.556C209.803 28.556 206.376 28.556 204.092 28.556C203.027 28.556 202.427 28.7663 201.426 29.131C201.389 29.1446 201.352 29.1585 201.315 29.1721C199.921 29.8762 198.902 30.804 197.8 31.9724C196.572 33.274 195.627 34.8042 195.023 36.4706C194.84 36.9752 194.69 37.4893 194.572 38.0098V65.928H184.292V37.9469C184.292 37.9469 184.299 37.8599 184.313 37.7066C184.333 37.27 184.367 36.833 184.417 36.3972C184.736 33.556 185.475 30.6858 186.957 28.1727C188.439 25.6596 190.636 23.5528 193.056 21.7505C195.324 20.0609 198.231 19.2654 200.849 18.8582L201.369 18.7818H209.803V28.556Z" fill="#131313"/>
<path d="M251.77 17.5637C254.047 15.2538 255.544 11.5235 256.508 8.04804C256.758 7.14609 259.467 7.14609 259.717 8.04804C260.681 11.5235 262.178 15.2538 264.455 17.5637C266.746 19.8892 270.458 21.4124 273.903 22.3898C274.797 22.6435 274.797 25.3528 273.903 25.6065C270.458 26.5839 266.746 28.1071 264.455 30.4326C262.178 32.7424 260.681 36.4728 259.717 39.9481C259.467 40.85 256.758 40.85 256.508 39.9481C255.544 36.4728 254.047 32.7424 251.77 30.4326C249.479 28.1071 245.767 26.5839 242.322 25.6065C241.428 25.3528 241.428 22.6435 242.322 22.3898C245.767 21.4124 249.479 19.8892 251.77 17.5637Z" fill="#F5AE2A"/>
</svg>
